<?xml version="1.0" standalone="no"?><!DOCTYPE svg PUBLIC "-//W3C//DTD SVG 1.1//EN" "http://www.w3.org/Graphics/SVG/1.1/DTD/svg11.dtd"><svg class="icon" width="16px" height="16.00px" viewBox="0 0 1024 1024" version="1.1" xmlns="http://www.w3.org/2000/svg"><path fill="#333333" d="M602.763636 1024l-4.654545-2.327273-6.981818-4.654545c-13.963636-6.981818-23.272727-18.618182-27.927273-32.581818-4.654545-13.963636-2.327273-27.927273 4.654545-39.563637 4.654545-6.981818 9.309091-13.963636 16.29091-18.618182h-137.309091c16.290909 11.636364 23.272727 27.927273 23.272727 46.545455-2.327273 23.272727-13.963636 39.563636-34.909091 48.872727-2.327273 0-4.654545 2.327273-4.654545 2.327273h-25.6c-16.290909-6.981818-34.909091-16.290909-41.89091-39.563636-6.981818-23.272727 2.327273-41.890909 23.272728-60.509091h-23.272728c-16.290909 0-32.581818 0-46.545454-4.654546C256 907.636364 216.436364 851.781818 221.090909 791.272727c6.981818-74.472727 16.290909-151.272727 25.6-230.4 6.981818-58.181818 60.509091-104.727273 121.018182-104.727272H660.945455c65.163636 0 116.363636 48.872727 123.345454 114.036363 6.981818 72.145455 16.290909 141.963636 23.272727 214.109091 4.654545 34.909091-6.981818 69.818182-27.927272 95.418182-20.945455 25.6-53.527273 41.890909-88.436364 44.218182h-46.545455l2.327273 2.327272c6.981818 6.981818 13.963636 13.963636 18.618182 23.272728 6.981818 11.636364 6.981818 25.6 2.327273 37.236363-4.654545 13.963636-13.963636 25.6-27.927273 32.581819l-16.290909 4.654545h-20.945455z m9.309091-158.254545h65.163637c23.272727 0 41.890909-6.981818 53.527272-23.272728 11.636364-13.963636 18.618182-32.581818 16.290909-53.527272-6.981818-72.145455-16.290909-141.963636-23.272727-214.109091-4.654545-34.909091-30.254545-60.509091-65.163636-60.509091H367.709091c-32.581818 0-60.509091 23.272727-65.163636 55.854545-9.309091 74.472727-16.290909 148.945455-23.272728 223.418182 0 6.981818 0 13.963636 2.327273 20.945455 6.981818 30.254545 32.581818 48.872727 69.818182 48.872727h162.909091l97.745454 2.327273zM323.490909 425.890909c-18.618182 0-23.272727-4.654545-23.272727-23.272727v-46.545455V20.945455c0-4.654545 2.327273-9.309091 4.654545-13.963637 0-2.327273 2.327273-4.654545 2.327273-4.654545V0h409.6v2.327273c0 2.327273 2.327273 4.654545 2.327273 4.654545 2.327273 4.654545 4.654545 9.309091 4.654545 13.963637v381.672727c0 18.618182-4.654545 23.272727-23.272727 23.272727H323.490909z m344.436364-58.181818V60.509091H358.4v309.527273h309.527273zM81.454545 786.618182c0-6.981818 2.327273-13.963636 2.327273-20.945455 2.327273-16.290909 4.654545-32.581818 6.981818-46.545454 9.309091-53.527273 27.927273-93.090909 55.854546-128 20.945455-23.272727 44.218182-41.890909 74.472727-51.2l11.636364-4.654546-4.654546 13.963637c0 2.327273-2.327273 4.654545-2.327272 6.981818-44.218182 90.763636-86.109091 181.527273-128 272.290909-2.327273 2.327273-4.654545 4.654545-6.981819 9.309091l-2.327272 2.327273-9.309091 13.963636v-67.490909zM933.236364 304.872727l9.309091 2.327273c2.327273 65.163636 0 151.272727-48.872728 225.745455-18.618182 30.254545-44.218182 51.2-76.8 65.163636-2.327273 0-4.654545 2.327273-9.309091 2.327273l-16.290909 6.981818 141.963637-302.545455z"  /><path fill="#333333" d="M539.927273 139.636364H628.363636v86.109091h-88.436363zM400.290909 139.636364h86.109091v86.109091h-86.109091z"  /></svg>